0
SECTION
2
HEADER
9
$INSUNITS
70
4
9
$ACADVER
1
AC1014
9
$HANDSEED
5
FFFF
0
ENDSEC
0
SECTION
2
TABLES
0
TABLE
2
VPORT
5
8
100
AcDbSymbolTable
0
ENDTAB
0
TABLE
2
LTYPE
5
5
100
AcDbSymbolTable
0
LTYPE
5
14
100
AcDbSymbolTableRecord
100
AcDbLinetypeTableRecord
2
BYBLOCK
70
0
0
LTYPE
5
15
100
AcDbSymbolTableRecord
100
AcDbLinetypeTableRecord
2
BYLAYER
70
0
0
ENDTAB
0
TABLE
2
LAYER
5
2
100
AcDbSymbolTable
70
2
0
LAYER
5
50
100
AcDbSymbolTableRecord
100
AcDbLayerTableRecord
2
0
70
0
6
CONTINUOUS
0
ENDTAB
0
TABLE
2
STYLE
5
3
100
AcDbSymbolTable
70
1
0
STYLE
5
11
100
AcDbSymbolTableRecord
100
AcDbTextStyleTableRecord
2
STANDARD
70
0
0
ENDTAB
0
TABLE
2
VIEW
5
6
100
AcDbSymbolTable
70
0
0
ENDTAB
0
TABLE
2
UCS
5
7
100
AcDbSymbolTable
70
0
0
ENDTAB
0
TABLE
2
APPID
5
9
100
AcDbSymbolTable
70
2
0
APPID
5
12
100
AcDbSymbolTableRecord
100
AcDbRegAppTableRecord
2
ACAD
70
0
0
ENDTAB
0
TABLE
2
DIMSTYLE
5
A
100
AcDbSymbolTable
70
1
0
ENDTAB
0
TABLE
2
BLOCK_RECORD
5
1
100
AcDbSymbolTable
70
1
0
BLOCK_RECORD
5
1F
100
AcDbSymbolTableRecord
100
AcDbBlockTableRecord
2
*MODEL_SPACE
0
BLOCK_RECORD
5
1B
100
AcDbSymbolTableRecord
100
AcDbBlockTableRecord
2
*PAPER_SPACE
0
ENDTAB
0
ENDSEC
0
SECTION
2
BLOCKS
0
BLOCK
5
20
100
AcDbEntity
100
AcDbBlockBegin
2
*MODEL_SPACE
0
ENDBLK
5
21
100
AcDbEntity
100
AcDbBlockEnd
0
BLOCK
5
1C
100
AcDbEntity
100
AcDbBlockBegin
2
*PAPER_SPACE
0
ENDBLK
5
1D
100
AcDbEntity
100
AcDbBlockEnd
0
ENDSEC
0
SECTION
2
ENTITIES
0
CIRCLE
5
100
100
AcDbEntity
8
0
100
AcDbCircle
10
17.000000253319747
20
-2.0000000298023228
30
0
40
2.1500000000000008
210
0
220
-0
230
1
0
CIRCLE
5
101
100
AcDbEntity
8
0
100
AcDbCircle
10
-0.29246167836171472
20
-14.000000208616257
30
0
40
2.1499999999999999
210
0
220
-0
230
1
0
CIRCLE
5
102
100
AcDbEntity
8
0
100
AcDbCircle
10
-38.700000551342967
20
-2.0000000298023224
30
0
40
2.1499999999999986
210
0
220
-0
230
1
0
LWPOLYLINE
5
103
100
AcDbEntity
8
0
100
AcDbPolyline
90
8
70
1
43
0.0
10
-42.000000000000014
20
-37.5
42
-0.41421356237309243
10
-44.000000000000014
20
-35.5
10
-44
20
5.0000000000000018
42
-0.41421356237309409
10
-42.000000000000021
20
7.0000000000000018
10
42
20
6.9999999999999858
42
-0.41421356237309409
10
43.999999999999993
20
5
10
43.999999999999993
20
-35.5
42
-0.41421356237309243
10
41.999999999999993
20
-37.5
0
LWPOLYLINE
5
104
100
AcDbEntity
8
0
100
AcDbPolyline
90
4
70
1
43
0.0
10
-11.659995499107744
20
-21.399999999989973
10
-13.15999999999951
20
-21.399999999989994
10
-13.159999999999506
20
-37.399999999989973
10
-11.659995499107744
20
-37.399999999989973
0
LWPOLYLINE
5
105
100
AcDbEntity
8
0
100
AcDbPolyline
90
4
70
1
43
0.0
10
-40.329999999999437
20
-21.399999999989991
10
-41.829999999999437
20
-21.399999999989991
10
-41.829999999999437
20
-37.399999999989952
10
-40.329999999999437
20
-37.399999999989944
0
LWPOLYLINE
5
106
100
AcDbEntity
8
0
100
AcDbPolyline
90
4
70
1
43
0.0
10
13.140004500892065
20
-21.399999999990008
10
11.640004500892065
20
-21.399999999990008
10
11.640004500892069
20
-37.39999999998998
10
13.140004500892065
20
-37.399999999989973
0
LWPOLYLINE
5
107
100
AcDbEntity
8
0
100
AcDbPolyline
90
4
70
1
43
0.0
10
41.810009001783754
20
-21.399999999989991
10
40.310004500891985
20
-21.399999999990015
10
40.310004500891985
20
-37.399999999989994
10
41.810009001783754
20
-37.399999999990001
0
LWPOLYLINE
5
108
100
AcDbEntity
8
0
100
AcDbPolyline
90
4
70
1
43
0.0
10
10.085004500892229
20
-21.399999999989991
10
8.5850000000004645
20
-21.399999999990023
10
8.5850000000004592
20
-37.399999999989994
10
10.085004500892229
20
-37.399999999989994
0
LWPOLYLINE
5
109
100
AcDbEntity
8
0
100
AcDbPolyline
90
4
70
1
43
0.0
10
-9.0299999999994842
20
-21.399999999990019
10
-10.529999999999484
20
-21.399999999990019
10
-10.529999999999479
20
-37.399999999989987
10
-9.029999999999486
20
-37.399999999989987
0
LWPOLYLINE
5
110
100
AcDbEntity
8
0
100
AcDbPolyline
90
8
70
1
43
0.0
10
-19.718477585880073
20
-5.3305013383288378
10
-19.718477585880073
20
-6.6513013383288389
10
-13.876477585880059
20
-6.6513013383288389
10
-13.87647758588006
20
-5.3305013383288378
10
-16.045677585880064
20
-5.3305013383288378
10
-16.045677585880064
20
-4.6345013383288372
10
-16.685677585880068
20
-4.6345013383288372
10
-16.685677585880068
20
-5.3305013383288378
0
LWPOLYLINE
5
111
100
AcDbEntity
8
0
100
AcDbPolyline
90
8
70
1
43
0.0
10
-13.876477585880059
20
1.7014988216711671
10
-13.876477585880059
20
3.0222988216711677
10
-19.718477585880073
20
3.0222988216711677
10
-19.718477585880073
20
1.7014988216711668
10
-16.685677585880068
20
1.7014988216711668
10
-16.685677585880072
20
1.0054988216711658
10
-16.045677585880064
20
1.005498821671166
10
-16.045677585880064
20
1.7014988216711668
0
LWPOLYLINE
5
112
100
AcDbEntity
8
0
100
AcDbPolyline
90
8
70
1
43
0.0
10
-30.718477585880109
20
-5.3305013383288236
10
-30.718477585880109
20
-6.6513013383288255
10
-24.876477585880092
20
-6.6513013383288255
10
-24.876477585880092
20
-5.3305013383288236
10
-27.0456775858801
20
-5.3305013383288236
10
-27.0456775858801
20
-4.6345013383288221
10
-27.685677585880107
20
-4.6345013383288221
10
-27.6856775858801
20
-5.3305013383288236
0
LINE
5
113
100
AcDbEntity
8
0
100
AcDbLine
10
-30.718477585880116
20
3.0222988216711895
30
0
11
-24.876477585880092
21
3.0222988216711899
31
0
0
LWPOLYLINE
5
114
100
AcDbEntity
8
0
100
AcDbPolyline
90
8
70
1
43
0.0
10
-24.876477585880092
20
1.7014988216711888
10
-24.876477585880092
20
3.0222988216711903
10
-30.718477585880116
20
3.022298821671189
10
-30.718477585880109
20
1.7014988216711877
10
-27.6856775858801
20
1.7014988216711879
10
-27.685677585880107
20
1.0054988216711862
10
-27.0456775858801
20
1.0054988216711864
10
-27.0456775858801
20
1.7014988216711882
0
LWPOLYLINE
5
115
100
AcDbEntity
8
0
100
AcDbPolyline
90
8
70
1
43
0.0
10
-7.7184775858800574
20
-5.3305013383288227
10
-7.7184775858800574
20
-6.6513013383288229
10
-1.876477585880042
20
-6.651301338328822
10
-1.8764775858800429
20
-5.3305013383288209
10
-4.045677585880048
20
-5.3305013383288209
10
-4.045677585880048
20
-4.6345013383288203
10
-4.685677585880053
20
-4.6345013383288203
10
-4.6856775858800495
20
-5.33050133832882
0
LWPOLYLINE
5
116
100
AcDbEntity
8
0
100
AcDbPolyline
90
8
70
1
43
0.0
10
-1.8764775858800451
20
1.7014988216711862
10
-1.8764775858800453
20
3.0222988216711872
10
-7.7184775858800592
20
3.0222988216711859
10
-7.7184775858800592
20
1.7014988216711853
10
-4.6856775858800521
20
1.7014988216711857
10
-4.6856775858800548
20
1.0054988216711844
10
-4.0456775858800507
20
1.0054988216711847
10
-4.0456775858800516
20
1.7014988216711857
0
LWPOLYLINE
5
117
100
AcDbEntity
8
0
100
AcDbPolyline
90
51
70
1
43
0.0
10
26.116077568567867
20
-12.349087492271824
10
26.786077568567869
20
-12.349087492271824
10
27.416077568567871
20
-12.349087492271821
10
27.416077568567871
20
-12.989087492271823
10
26.786077568567869
20
-12.989087492271823
10
26.116077568567867
20
-12.989087492271823
10
26.116077568567867
20
-15.349087492271822
10
26.786077568567869
20
-15.349087492271822
10
27.426077568567869
20
-15.349087492271822
10
27.426077568567869
20
-15.989087492271823
10
26.786077568567869
20
-15.989087492271823
10
26.116077568567867
20
-15.989087492271823
10
26.116077568567867
20
-17.994087492271824
10
27.716077568567869
20
-17.994087492271824
10
27.716077568567869
20
-17.974087492271821
10
35.591666233013882
20
-17.974087492271817
10
36.026077568567885
20
-17.609573100831817
10
36.026077568567878
20
4.2713981162881831
10
35.591666233013875
20
4.6359125077281824
10
27.716077568567865
20
4.6359125077281798
10
26.116077568567864
20
4.635912507728178
10
26.116077568567864
20
2.6509125077281781
10
26.786077568567865
20
2.6509125077281794
10
27.426077568567866
20
2.6509125077281794
10
27.426077568567866
20
2.010912507728178
10
26.786077568567865
20
2.010912507728178
10
26.116077568567864
20
2.0109125077281775
10
26.116077568567864
20
-0.34908749227182262
10
26.786077568567865
20
-0.34908749227182151
10
27.416077568567868
20
-0.34908749227182123
10
27.416077568567868
20
-0.98908749227182158
10
26.786077568567865
20
-0.98908749227182158
10
26.116077568567864
20
-0.98908749227182124
10
26.116077568567864
20
-3.349087492271821
10
26.786077568567865
20
-3.349087492271821
10
27.416077568567868
20
-3.349087492271821
10
27.416077568567868
20
-3.9890874922718211
10
26.786077568567865
20
-3.9890874922718216
10
26.116077568567864
20
-3.989087492271822
10
26.116077568567864
20
-6.3490874922718206
10
26.786077568567865
20
-6.3490874922718206
10
27.416077568567868
20
-6.3490874922718206
10
27.416077568567868
20
-6.9890874922718211
10
26.786077568567865
20
-6.9890874922718211
10
26.116077568567867
20
-6.9890874922718211
10
26.116077568567864
20
-9.3490874922718206
10
26.786077568567865
20
-9.3490874922718206
10
27.416077568567868
20
-9.3490874922718206
10
27.416077568567868
20
-9.9890874922718211
10
26.786077568567869
20
-9.9890874922718211
10
26.116077568567867
20
-9.9890874922718247
0
LWPOLYLINE
5
118
100
AcDbEntity
8
0
100
AcDbPolyline
90
4
70
1
43
0.0
10
27.416077568567871
20
-15.019087492271822
10
27.416077568567871
20
-14.019087492271822
10
34.616077568567881
20
-14.019087492271819
10
34.616077568567881
20
-15.019087492271819
0
LWPOLYLINE
5
119
100
AcDbEntity
8
0
100
AcDbPolyline
90
4
70
1
43
0.0
10
34.616077568567874
20
1.6809125077281806
10
34.616077568567874
20
0.68091250772818079
10
27.416077568567868
20
0.68091250772817857
10
27.416077568567868
20
1.6809125077281779
0
LWPOLYLINE
5
120
100
AcDbEntity
8
0
100
AcDbPolyline
90
4
70
1
43
0.0
10
24.246077568567866
20
-15.529087492271763
10
23.966077568567865
20
-15.529087492271763
10
23.966077568567865
20
-15.809087492271763
10
24.246077568567866
20
-15.809087492271763
0
LWPOLYLINE
5
121
100
AcDbEntity
8
0
100
AcDbPolyline
90
4
70
1
43
0.0
10
-26.219999999999995
20
-12.670000000000009
10
-25.879999999999992
20
-12.670000000000009
10
-25.879999999999988
20
-12.330000000000007
10
-26.219999999999992
20
-12.330000000000007
0
LWPOLYLINE
5
122
100
AcDbEntity
8
0
100
AcDbPolyline
90
18
70
1
43
0.0
10
-26.899999999999991
20
-14.475000000000012
10
-26.899999999999991
20
-13.525000000000009
10
-34.100000000000009
20
-13.525000000000009
10
-34.100000000000009
20
-12.525000000000009
10
-26.899999999999991
20
-12.525000000000009
10
-26.899999999999995
20
-10.535000000000005
10
-31.450000000000003
20
-10.535000000000005
10
-31.449999999999999
20
-10.135000000000005
10
-34.510000000000012
20
-10.135000000000005
10
-34.950000000000017
20
-10.575000000000006
10
-34.950000000000017
20
-17.425000000000011
10
-34.510000000000012
20
-17.865000000000013
10
-31.450000000000003
20
-17.865000000000013
10
-31.450000000000003
20
-17.465000000000014
10
-26.899999999999991
20
-17.465000000000014
10
-26.899999999999995
20
-15.47500000000001
10
-34.100000000000009
20
-15.47500000000001
10
-34.100000000000009
20
-14.475000000000012
0
LINE
5
123
100
AcDbEntity
8
0
100
AcDbLine
10
-25.049999999999986
20
-12.820000000000009
30
0
11
-25.049999999999986
21
-15.18000000000001
31
0
0
ENDSEC
0
SECTION
2
OBJECTS
0
DICTIONARY
5
C
100
AcDbDictionary
3
ACAD_GROUP
350
D
3
ACAD_MLINESTYLE
350
17
0
DICTIONARY
5
D
100
AcDbDictionary
0
DICTIONARY
5
1A
330
C
100
AcDbDictionary
0
DICTIONARY
5
17
100
AcDbDictionary
0
ENDSEC
0
EOF
