<?xml version="1.0" encoding="UTF-8" standalone="no"?>
<svg
   version="1.1"
   id="Layer_1"
   x="0px"
   y="0px"
   width="100%"
   viewBox="0 0 1920 1080"
   enable-background="new 0 0 1920 1080"
   xml:space="preserve"
   sodipodi:docname="Doomcube.svg"
   inkscape:version="1.3.2 (091e20e, 2023-11-25, custom)"
   xmlns:inkscape="http://www.inkscape.org/namespaces/inkscape"
   xmlns:sodipodi="http://sodipodi.sourceforge.net/DTD/sodipodi-0.dtd"
   xmlns="http://www.w3.org/2000/svg"
   xmlns:svg="http://www.w3.org/2000/svg"><defs
   id="defs14" /><sodipodi:namedview
   id="namedview14"
   pagecolor="#ffffff"
   bordercolor="#000000"
   borderopacity="0.25"
   inkscape:showpageshadow="2"
   inkscape:pageopacity="0.0"
   inkscape:pagecheckerboard="0"
   inkscape:deskcolor="#d1d1d1"
   inkscape:zoom="0.6765625"
   inkscape:cx="960"
   inkscape:cy="540.23095"
   inkscape:window-width="1920"
   inkscape:window-height="1009"
   inkscape:window-x="-8"
   inkscape:window-y="-8"
   inkscape:window-maximized="1"
   inkscape:current-layer="Layer_1" />

<path
   fill="#FF0000"
   opacity="1.000000"
   stroke="none"
   d=" M807.990845,620.376648   C806.676819,620.739197 805.011902,621.164062 804.118774,620.519531   C785.915466,607.382751 767.745117,594.197632 749.762634,580.761902   C748.158691,579.563477 747.134827,576.585999 747.115906,574.423645   C746.924622,552.596680 746.999329,530.767334 746.999329,508.938629   C746.999329,450.284454 746.999329,391.630249 746.999329,332.976074   C746.999329,331.159760 746.999329,329.343475 746.999329,327.128174   C748.598511,327.021515 750.017822,326.846130 751.437195,326.844543   C768.433594,326.825470 785.433472,327.020569 802.423889,326.702667   C806.798340,326.620850 808.690002,328.033936 810.368591,331.935455   C821.753845,358.397827 833.406799,384.745087 844.990906,411.121765   C845.705200,412.748169 846.569763,414.308594 847.658142,416.487762   C853.368530,405.351074 858.928589,394.739746 864.277527,384.023041   C872.996826,366.553986 881.616577,349.034821 890.183533,331.490509   C891.783813,328.213379 893.708008,326.649658 897.729980,326.714539   C914.888550,326.991119 932.054138,326.832184 949.217163,326.832184   C950.669006,326.832184 952.120850,326.832184 954.000671,326.832184   C954.000671,329.047699 954.000671,330.839050 954.000671,332.630402   C954.000671,412.613373 953.977417,492.596405 954.069885,572.579285   C954.074524,576.557800 952.972839,578.877747 949.507446,581.337891   C931.234863,594.310547 913.294800,607.751648 895.232117,621.020203   C894.743835,621.378845 894.172729,621.624634 893.191650,622.174561   C893.191650,575.275391 893.191650,528.877136 893.191650,482.478821   C892.749268,482.338593 892.306885,482.198364 891.864502,482.058136   C878.937683,514.486145 866.010803,546.914185 852.746704,580.188354   C837.881348,547.317200 823.399719,515.294556 808.918152,483.271942   C808.611877,483.316589 808.305603,483.361237 807.999329,483.405914   C807.999329,528.917603 807.999329,574.429260 807.990845,620.376648  z"
   id="path2" />
<path
   fill="#FF0101"
   opacity="1.000000"
   stroke="none"
   d=" M417.521790,364.005280   C417.521790,438.975311 417.477081,513.446777 417.640961,587.917725   C417.650146,592.074829 416.230408,594.751160 413.261322,597.115479   C397.460327,609.697998 381.655548,622.275940 365.878906,634.888977   C345.189362,651.429749 324.526642,668.004089 303.848938,684.559692   C291.204956,694.682983 278.554504,704.798279 265.541382,715.209717   C272.312683,693.244568 268.704803,671.256531 268.802307,649.570679   C269.248840,550.277527 268.874634,450.980865 269.216797,351.686951   C269.246521,343.061951 266.943176,336.468201 261.159180,330.617676   C260.371948,329.821411 259.725220,328.886261 258.411987,327.279572   C260.479004,327.084747 261.822937,326.848083 263.166962,326.847412   C302.151947,326.827576 341.137085,326.793823 380.121613,326.926758   C382.406128,326.934540 384.908447,327.940704 386.929749,329.128387   C396.139221,334.539795 405.116333,340.352081 414.396240,345.635071   C417.060791,347.151978 417.655792,348.834930 417.559204,351.513702   C417.415253,355.506592 417.521851,359.508484 417.521790,364.005280  M324.000977,425.500000   C324.000977,476.160095 324.000977,526.820190 324.000977,578.244812   C334.427521,570.333191 343.881409,562.974548 353.559998,555.924438   C356.605286,553.706177 357.569763,551.290222 357.561127,547.592468   C357.439819,495.616516 357.478729,443.640228 357.478729,391.664001   C357.478729,389.895752 357.478729,388.127533 357.478729,386.295166   C346.044098,386.295166 335.146973,386.295166 324.000977,386.295166   C324.000977,399.225220 324.000977,411.862610 324.000977,425.500000  z"
   id="path3" />
<path
   fill="#FF0101"
   opacity="1.000000"
   stroke="none"
   d=" M1436.678955,339.321503   C1445.076172,345.239807 1447.075195,352.939941 1446.754761,362.735168   C1446.019775,385.209900 1446.118774,407.736572 1446.759155,430.217072   C1446.960449,437.282837 1444.125977,440.327606 1438.556152,443.163361   C1428.422974,448.322327 1418.582642,454.056244 1407.768188,460.020081   C1414.746826,463.995026 1420.950562,467.536041 1427.161621,471.063995   C1432.443726,474.064301 1437.621704,477.279083 1443.066895,479.947968   C1445.950439,481.361389 1446.587524,483.167114 1446.578125,486.115448   C1446.484131,515.446838 1446.489136,544.778687 1446.569702,574.110229   C1446.577881,577.050964 1445.643921,578.685303 1443.131470,580.509399   C1417.634155,599.020996 1392.261841,617.706787 1367.006592,636.547424   C1364.085449,638.726685 1361.852539,637.738831 1359.929443,636.210327   C1350.722778,628.892944 1341.816650,621.197937 1332.623657,613.862732   C1321.932861,605.332397 1311.037476,597.058838 1300.267944,588.626526   C1296.641602,585.787354 1294.282959,582.810486 1294.302612,577.365417   C1294.564819,504.703735 1294.606201,432.040253 1294.276978,359.379150   C1294.244629,352.215332 1296.588501,347.138031 1301.167603,342.349579   C1305.035767,338.304443 1308.496948,333.829224 1312.646973,330.112274   C1314.627197,328.338623 1317.782837,326.984558 1320.415771,326.967804   C1353.245972,326.759155 1386.078125,326.889832 1418.909058,326.751648   C1422.693726,326.735718 1425.521729,327.624298 1428.005859,330.533386   C1430.595337,333.565735 1433.603760,336.240387 1436.678955,339.321503  M1351.999390,498.609589   C1351.999390,511.584381 1352.086670,524.560120 1351.937622,537.533203   C1351.900635,540.756348 1352.610229,543.054016 1355.297607,545.174561   C1361.427246,550.011169 1367.221924,555.271240 1373.178223,560.328979   C1377.001953,563.575745 1380.871216,566.768860 1385.513794,570.649414   C1385.513794,556.527588 1385.551758,543.593262 1385.497681,530.659302   C1385.470581,524.203186 1387.294800,516.662903 1384.576782,511.603363   C1381.965332,506.742157 1374.595459,504.411377 1369.270996,501.040497   C1363.746704,497.542999 1358.167725,494.131683 1351.999390,490.301880   C1351.999390,493.385864 1351.999390,495.516937 1351.999390,498.609589  M1352.566650,386.722534   C1352.377808,388.171173 1352.030273,389.619263 1352.025024,391.068573   C1351.981079,403.195831 1351.989868,415.323334 1352.015747,427.450684   C1352.018311,428.653839 1352.240234,429.856537 1352.410156,431.558075   C1363.019165,425.207001 1373.115234,419.207153 1383.140747,413.091888   C1384.131714,412.487427 1385.327271,411.191498 1385.350952,410.191040   C1385.534058,402.449310 1385.451904,394.701294 1385.451904,386.551910   C1374.406372,386.551910 1363.978027,386.551910 1352.566650,386.722534  z"
   id="path4" />
<path
   fill="#FF0000"
   opacity="1.000000"
   stroke="none"
   d=" M1577.672363,624.674500   C1564.706543,634.992188 1551.979858,645.033875 1539.309692,655.146606   C1513.855835,675.462891 1488.433472,695.819092 1462.989014,716.147217   C1462.625610,716.437500 1462.143555,716.579102 1460.858521,717.214783   C1462.158325,711.071167 1463.446533,705.588440 1464.457031,700.054993   C1465.754517,692.950073 1467.834961,685.806458 1467.849121,678.676025   C1468.065674,569.695068 1467.880981,460.713257 1468.222412,351.732971   C1468.250122,342.891266 1465.757568,336.227692 1459.835327,330.293945   C1459.156616,329.613953 1458.617920,328.794403 1457.411377,327.285309   C1459.454956,327.089203 1460.791992,326.849548 1462.129028,326.848846   C1501.122314,326.828796 1540.115845,326.795105 1579.108643,326.927856   C1581.393921,326.935638 1583.897583,327.938629 1585.918945,329.126312   C1595.273560,334.622284 1604.523438,340.299255 1613.724609,346.049530   C1614.911987,346.791626 1616.382446,348.329559 1616.395508,349.513489   C1616.572388,365.483246 1616.514160,381.455597 1616.514160,397.712463   C1596.263916,397.712463 1576.374756,397.712463 1556.047974,397.712463   C1556.047974,393.924072 1556.047974,390.174744 1556.047974,386.224426   C1544.878784,386.224426 1534.145630,386.224426 1523.206299,386.224426   C1523.206299,404.691223 1523.206299,422.953918 1523.206299,441.719330   C1542.194946,441.719330 1561.105225,441.719330 1580.264404,441.719330   C1580.264404,461.649109 1580.264404,481.077545 1580.264404,500.965149   C1561.209717,500.965149 1542.311035,500.965149 1523.209229,500.965149   C1523.209229,526.180664 1523.209229,550.938477 1523.209229,576.499451   C1528.077881,572.994690 1532.534912,569.792908 1536.984741,566.581482   C1542.832153,562.361572 1548.762329,558.247498 1554.444824,553.815918   C1555.604980,552.911072 1556.335571,550.819153 1556.389771,549.244263   C1556.606934,542.943665 1556.479614,536.631165 1556.479614,530.082275   C1576.535034,530.082275 1596.138428,530.082275 1616.279785,530.082275   C1616.359741,531.830872 1616.507202,533.581909 1616.509277,535.333130   C1616.527710,550.330566 1616.359375,565.330994 1616.640991,580.323181   C1616.705444,583.760132 1618.291870,587.168457 1619.366089,591.317078   C1606.406372,601.675598 1592.171631,613.053162 1577.672363,624.674500  z"
   id="path5" />
<path
   fill="#FF0101"
   opacity="1.000000"
   stroke="none"
   d=" M421.477142,576.737427   C421.477142,503.967407 421.606049,431.667053 421.275787,359.368744   C421.243073,352.205750 423.593414,347.135284 428.168335,342.347626   C432.148468,338.182434 435.764862,333.643738 439.974915,329.736633   C441.699219,328.136414 444.557343,326.963287 446.906799,326.950928   C480.390320,326.774597 513.875305,326.781586 547.359009,326.944092   C549.531433,326.954651 552.171570,328.078705 553.778992,329.565887   C559.642456,334.990967 565.274475,340.682983 570.729858,346.520966   C572.149414,348.040039 573.395447,350.452881 573.399170,352.457672   C573.537048,426.589691 573.538147,500.722015 573.404358,574.854065   C573.401306,576.569092 572.061584,578.850464 570.634399,579.909912   C545.211182,598.782166 519.619751,617.428284 494.248627,636.369690   C491.388672,638.504883 489.122833,637.932495 487.149597,636.417419   C479.734894,630.724304 472.607666,624.658569 465.310608,618.809937   C457.795715,612.786743 450.195007,606.870789 442.656616,600.876709   C435.962769,595.554199 429.084381,590.427673 422.789398,584.666199   C421.313141,583.315063 421.860657,579.752747 421.477142,576.737427  M479.001495,463.500000   C479.001526,488.163422 479.077698,512.827332 478.916016,537.489685   C478.892853,541.016724 479.921783,543.286926 482.671875,545.467896   C488.670746,550.225403 494.353760,555.379883 500.194611,560.338196   C504.016022,563.582153 507.887909,566.766724 512.039368,570.229980   C512.039368,508.508636 512.039368,447.626740 512.039368,386.805725   C500.847778,386.805725 490.096313,386.805725 479.001495,386.805725   C479.001495,412.225006 479.001495,437.362488 479.001495,463.500000  z"
   id="path6" />
<path
   fill="#FF0101"
   opacity="1.000000"
   stroke="none"
   d=" M583.477173,377.999756   C583.477173,371.169800 583.945129,364.795013 583.344482,358.522614   C582.752075,352.336090 585.062195,347.780029 589.064148,343.562775   C592.228088,340.228668 595.443115,336.908020 598.263489,333.291351   C602.151489,328.305603 606.783813,326.586426 613.260864,326.662018   C645.072815,327.033417 676.891663,326.877472 708.707520,326.759949   C711.973206,326.747894 714.263977,327.672577 716.494202,330.042694   C721.627930,335.498413 727.258423,340.497040 732.239197,346.080872   C734.002380,348.057648 735.381897,351.192444 735.387878,353.802063   C735.554504,427.095703 735.508972,500.389771 735.570129,573.683716   C735.572693,576.740845 734.823914,578.587769 732.093323,580.566406   C706.590881,599.045776 681.324280,617.850403 655.827576,636.337708   C654.345459,637.412476 650.770264,637.492981 649.348145,636.441589   C641.836731,630.887817 634.733337,624.785339 627.430969,618.944946   C619.781738,612.827026 612.043335,606.820801 604.389038,600.709167   C597.829773,595.471924 591.200134,590.306091 584.924988,584.743835   C583.686523,583.646118 583.538574,580.886841 583.534058,578.892456   C583.454956,544.244568 583.477051,509.596405 583.477051,474.948334   C583.477051,442.798798 583.477051,410.649292 583.477173,377.999756  M674.477051,390.471436   C673.700012,389.162079 672.951172,386.733521 672.141724,386.713135   C661.883423,386.455017 651.616455,386.543365 641.372864,386.543365   C641.189453,387.536102 641.024414,388.012909 641.024231,388.489777   C641.008789,438.815674 640.981323,489.141632 641.109741,539.467163   C641.113953,541.117676 642.328857,543.200806 643.629089,544.342102   C652.639587,552.251770 661.816101,559.972412 670.959595,567.729980   C671.875671,568.507202 672.926819,569.125244 674.066467,569.923035   C674.275391,569.093201 674.426941,568.772034 674.427063,568.450867   C674.450989,509.459839 674.464172,450.468781 674.477051,390.471436  z"
   id="path7" />
<path
   fill="#FF0000"
   opacity="1.000000"
   stroke="none"
   d=" M1223.000000,421.000000   C1223.000000,389.515472 1223.000000,358.530975 1223.000000,327.189819   C1243.251831,327.189819 1263.311768,327.189819 1283.778442,327.189819   C1283.845825,328.449097 1283.990234,329.890076 1283.990479,331.331085   C1284.001099,412.163666 1283.983276,492.996246 1284.067261,573.828735   C1284.070312,576.747986 1283.391602,578.662720 1280.951660,580.431702   C1255.232056,599.078003 1229.588623,617.829529 1203.956665,636.596375   C1203.046509,637.262756 1202.473999,638.390564 1201.657959,639.411316   C1193.583496,632.962585 1185.930664,626.821167 1178.245117,620.720947   C1170.703125,614.734802 1163.106812,608.817139 1155.573364,602.820251   C1148.371704,597.087463 1141.065186,591.467285 1134.168091,585.385559   C1132.656738,584.052917 1132.089233,580.978210 1132.085938,578.704285   C1131.981201,506.705109 1132.000000,434.705780 1132.000000,362.706451   C1132.000000,350.909973 1132.000000,339.113495 1132.000000,327.081482   C1151.280396,327.081482 1170.174561,327.081482 1189.519775,327.081482   C1189.519775,329.295593 1189.519775,331.264893 1189.519775,333.234192   C1189.519775,401.233551 1189.486206,469.232971 1189.647461,537.231934   C1189.653687,539.853760 1190.803833,543.281128 1192.662231,544.954590   C1202.239258,553.578308 1212.221924,561.751587 1223.000000,570.875305   C1223.000000,520.524109 1223.000000,471.012054 1223.000000,421.000000  z"
   id="path8" />
<path
   fill="#FF0101"
   opacity="1.000000"
   stroke="none"
   d=" M969.478027,537.999756   C969.478027,478.179443 969.638794,418.858154 969.272644,359.540192   C969.227234,352.186829 971.696594,346.994720 976.400146,342.107025   C978.894775,339.514801 981.325012,336.840546 983.567993,334.030579   C987.615784,328.959747 992.223328,326.529419 999.248718,326.630646   C1031.068481,327.089142 1062.898682,326.879028 1094.724609,326.759094   C1097.998901,326.746765 1100.283691,327.688873 1102.507690,330.057953   C1107.522705,335.400299 1112.707397,340.598022 1118.054932,345.607025   C1120.552612,347.946625 1121.623047,350.352386 1121.598633,353.829773   C1121.446533,375.471588 1121.521973,397.114990 1121.521973,419.139221   C1101.173462,419.139221 1081.134521,419.139221 1060.623047,419.139221   C1060.623047,408.468536 1060.623047,397.880188 1060.623047,386.910522   C1049.274902,386.910522 1038.386230,386.910522 1027.001221,386.910522   C1027.001221,388.469482 1027.001099,390.097504 1027.001099,391.725525   C1027.001099,440.381470 1027.033447,489.037476 1026.929932,537.693237   C1026.922974,540.998901 1027.873901,543.157043 1030.444092,545.273682   C1040.196899,553.305847 1049.738159,561.594910 1060.188965,570.495117   C1060.188965,551.717041 1060.188965,533.768127 1060.188965,515.494324   C1080.800049,515.494324 1100.706299,515.494324 1121.152466,515.494324   C1121.264282,516.713684 1121.503906,518.119507 1121.505127,519.525635   C1121.520630,537.688232 1121.461548,555.851074 1121.534302,574.013306   C1121.545776,576.887939 1120.781738,578.587280 1118.204590,580.455444   C1092.698975,598.944824 1067.336792,617.634155 1042.093994,636.481262   C1039.202759,638.639893 1036.980591,637.847778 1035.004028,636.293457   C1025.881958,629.119812 1016.999084,621.642944 1007.944336,614.382202   C1000.553040,608.455200 993.030640,602.691772 985.583740,596.833679   C980.513062,592.844910 975.333313,588.973877 970.526550,584.686707   C969.471741,583.745850 969.529724,581.265442 969.519958,579.491516   C969.444275,565.827942 969.478027,552.163757 969.478027,537.999756  z"
   id="path9" />





</svg>
