0
SECTION
2
HEADER
9
$INSUNITS
70
4
9
$ACADVER
1
AC1014
9
$HANDSEED
5
FFFF
0
ENDSEC
0
SECTION
2
TABLES
0
TABLE
2
VPORT
5
8
100
AcDbSymbolTable
0
ENDTAB
0
TABLE
2
LTYPE
5
5
100
AcDbSymbolTable
0
LTYPE
5
14
100
AcDbSymbolTableRecord
100
AcDbLinetypeTableRecord
2
BYBLOCK
70
0
0
LTYPE
5
15
100
AcDbSymbolTableRecord
100
AcDbLinetypeTableRecord
2
BYLAYER
70
0
0
ENDTAB
0
TABLE
2
LAYER
5
2
100
AcDbSymbolTable
70
2
0
LAYER
5
50
100
AcDbSymbolTableRecord
100
AcDbLayerTableRecord
2
0
70
0
6
CONTINUOUS
0
ENDTAB
0
TABLE
2
STYLE
5
3
100
AcDbSymbolTable
70
1
0
STYLE
5
11
100
AcDbSymbolTableRecord
100
AcDbTextStyleTableRecord
2
STANDARD
70
0
0
ENDTAB
0
TABLE
2
VIEW
5
6
100
AcDbSymbolTable
70
0
0
ENDTAB
0
TABLE
2
UCS
5
7
100
AcDbSymbolTable
70
0
0
ENDTAB
0
TABLE
2
APPID
5
9
100
AcDbSymbolTable
70
2
0
APPID
5
12
100
AcDbSymbolTableRecord
100
AcDbRegAppTableRecord
2
ACAD
70
0
0
ENDTAB
0
TABLE
2
DIMSTYLE
5
A
100
AcDbSymbolTable
70
1
0
ENDTAB
0
TABLE
2
BLOCK_RECORD
5
1
100
AcDbSymbolTable
70
1
0
BLOCK_RECORD
5
1F
100
AcDbSymbolTableRecord
100
AcDbBlockTableRecord
2
*MODEL_SPACE
0
BLOCK_RECORD
5
1B
100
AcDbSymbolTableRecord
100
AcDbBlockTableRecord
2
*PAPER_SPACE
0
ENDTAB
0
ENDSEC
0
SECTION
2
BLOCKS
0
BLOCK
5
20
100
AcDbEntity
100
AcDbBlockBegin
2
*MODEL_SPACE
0
ENDBLK
5
21
100
AcDbEntity
100
AcDbBlockEnd
0
BLOCK
5
1C
100
AcDbEntity
100
AcDbBlockBegin
2
*PAPER_SPACE
0
ENDBLK
5
1D
100
AcDbEntity
100
AcDbBlockEnd
0
ENDSEC
0
SECTION
2
ENTITIES
0
LWPOLYLINE
5
100
100
AcDbEntity
8
0
100
AcDbPolyline
90
32
70
1
43
0.0
10
-229.00000000000003
20
-12.499999999999956
42
-0.41421356237309503
10
-226.50000000000003
20
-9.9999999999999556
10
-211.50000000000003
20
-9.9999999999999556
42
0.41421356237309503
10
-209.00000000000003
20
-7.4999999999999556
10
-209.00000000000003
20
7.5000000000000444
42
0.41421356237309503
10
-211.50000000000003
20
10.000000000000044
10
-226.50000000000003
20
10.000000000000044
42
-0.41421356237309503
10
-229.00000000000003
20
12.500000000000036
10
-229.00000000000003
20
204.50000000000006
42
-0.41421356237309503
10
-224.00000000000003
20
209.50000000000006
10
-192.00000000000003
20
209.50000000000006
42
0.41421356237309503
10
-187
20
214.50000000000006
10
-187
20
224.00000000000006
42
-0.41421356237309503
10
-182
20
229.00000000000006
10
182
20
229.00000000000006
42
-0.41421356237309503
10
187
20
224.00000000000006
10
187.00000000000003
20
214.50000000000006
42
0.41421356237309503
10
192.00000000000003
20
209.50000000000006
10
224.00000000000003
20
209.50000000000006
42
-0.41421356237309503
10
229.00000000000003
20
204.50000000000006
10
229.00000000000003
20
-204.5
42
-0.41421356237309503
10
224.00000000000003
20
-209.5
10
192.00000000000003
20
-209.5
42
0.41421356237309503
10
187
20
-214.5
10
187
20
-224
42
-0.41421356237309503
10
182
20
-229
10
-182
20
-229
42
-0.41421356237309503
10
-187
20
-224
10
-187.00000000000003
20
-214.5
42
0.41421356237309503
10
-192.00000000000003
20
-209.5
10
-224.00000000000003
20
-209.5
42
-0.41421356237309503
10
-229.00000000000003
20
-204.5
0
ENDSEC
0
SECTION
2
OBJECTS
0
DICTIONARY
5
C
100
AcDbDictionary
3
ACAD_GROUP
350
D
3
ACAD_MLINESTYLE
350
17
0
DICTIONARY
5
D
100
AcDbDictionary
0
DICTIONARY
5
1A
330
C
100
AcDbDictionary
0
DICTIONARY
5
17
100
AcDbDictionary
0
ENDSEC
0
EOF
