0
SECTION
2
HEADER
9
$INSUNITS
70
4
9
$ACADVER
1
AC1014
9
$HANDSEED
5
FFFF
0
ENDSEC
0
SECTION
2
TABLES
0
TABLE
2
VPORT
5
8
100
AcDbSymbolTable
0
ENDTAB
0
TABLE
2
LTYPE
5
5
100
AcDbSymbolTable
0
LTYPE
5
14
100
AcDbSymbolTableRecord
100
AcDbLinetypeTableRecord
2
BYBLOCK
70
0
0
LTYPE
5
15
100
AcDbSymbolTableRecord
100
AcDbLinetypeTableRecord
2
BYLAYER
70
0
0
ENDTAB
0
TABLE
2
LAYER
5
2
100
AcDbSymbolTable
70
2
0
LAYER
5
50
100
AcDbSymbolTableRecord
100
AcDbLayerTableRecord
2
0
70
0
6
CONTINUOUS
0
ENDTAB
0
TABLE
2
STYLE
5
3
100
AcDbSymbolTable
70
1
0
STYLE
5
11
100
AcDbSymbolTableRecord
100
AcDbTextStyleTableRecord
2
STANDARD
70
0
0
ENDTAB
0
TABLE
2
VIEW
5
6
100
AcDbSymbolTable
70
0
0
ENDTAB
0
TABLE
2
UCS
5
7
100
AcDbSymbolTable
70
0
0
ENDTAB
0
TABLE
2
APPID
5
9
100
AcDbSymbolTable
70
2
0
APPID
5
12
100
AcDbSymbolTableRecord
100
AcDbRegAppTableRecord
2
ACAD
70
0
0
ENDTAB
0
TABLE
2
DIMSTYLE
5
A
100
AcDbSymbolTable
70
1
0
ENDTAB
0
TABLE
2
BLOCK_RECORD
5
1
100
AcDbSymbolTable
70
1
0
BLOCK_RECORD
5
1F
100
AcDbSymbolTableRecord
100
AcDbBlockTableRecord
2
*MODEL_SPACE
0
BLOCK_RECORD
5
1B
100
AcDbSymbolTableRecord
100
AcDbBlockTableRecord
2
*PAPER_SPACE
0
ENDTAB
0
ENDSEC
0
SECTION
2
BLOCKS
0
BLOCK
5
20
100
AcDbEntity
100
AcDbBlockBegin
2
*MODEL_SPACE
0
ENDBLK
5
21
100
AcDbEntity
100
AcDbBlockEnd
0
BLOCK
5
1C
100
AcDbEntity
100
AcDbBlockBegin
2
*PAPER_SPACE
0
ENDBLK
5
1D
100
AcDbEntity
100
AcDbBlockEnd
0
ENDSEC
0
SECTION
2
ENTITIES
0
LWPOLYLINE
5
100
100
AcDbEntity
8
0
100
AcDbPolyline
90
32
70
1
43
0.0
10
139.99977639266089
20
388.50018807783636
10
139.99977639266078
20
373.50018807783636
42
0.41421356237309298
10
142.49977639266075
20
371.00018807783636
10
157.49977639266075
20
371.00018807783619
42
0.41421356237308049
10
159.99977639266078
20
373.50018807783607
10
159.99977639266089
20
388.50018807783601
42
-0.41421356237306589
10
162.49977639266086
20
391.00018807783607
10
329.49977639266058
20
391.00018807783454
42
-0.41421356237308665
10
334.49977639266052
20
386.00018807783448
10
334.49977639266018
20
354.00018807783465
42
0.4142135623730992
10
339.49977639266018
20
349.00018807783459
10
348.99977639266024
20
349.00018807783431
42
-0.41421356237308665
10
353.99977639266012
20
344.00018807783448
10
353.99977639265728
20
30.000188077835169
42
-0.41421356237309004
10
348.99977639265734
20
25.000188077835212
10
339.4997763926574
20
25.000188077835311
42
0.41421356237309298
10
334.49977639265734
20
20.000188077835425
10
334.49977639265694
20
-11.999811922164575
42
-0.41421356237308216
10
329.49977639265711
20
-16.999811922164533
10
-29.500223607342434
20
-16.999811922161378
42
-0.41421356237309298
10
-34.50022360734237
20
-11.999811922161406
10
-34.500223607342079
20
20.000188077838615
42
0.41421356237309681
10
-39.500223607342058
20
25.000188077838622
10
-49.000223607342086
20
25.000188077838715
42
-0.41421356237309137
10
-54.000223607342015
20
30.000188077838672
10
-54.000223607339407
20
344.000188077838
42
-0.41421356237308149
10
-49.000223607339208
20
349.000188077838
10
-39.500223607339201
20
349.00018807783789
42
0.41421356237308932
10
-34.500223607339173
20
354.00018807783772
10
-34.500223607339016
20
386.00018807783783
42
-0.41421356237308538
10
-29.500223607338825
20
391.00018807783778
10
137.49977639266092
20
391.00018807783624
42
-0.41421356237308254
0
ARC
5
101
100
AcDbEntity
8
0
100
AcDbCircle
10
150.00000000001015
20
147.0003521006029
30
3.1086244689504383e-14
40
12.499999999999998
210
0
220
0
230
1
100
AcDbArc
50
-181.10770138335855
51
1.1077013833713547
0
ARC
5
102
100
AcDbEntity
8
0
100
AcDbCircle
10
150.00000000001009
20
147.48364789939234
30
3.1086244689504383e-14
40
12.499999999999998
210
0
220
0
230
1
100
AcDbArc
50
-1.1077013833585412
51
181.10770138337134
0
ENDSEC
0
SECTION
2
OBJECTS
0
DICTIONARY
5
C
100
AcDbDictionary
3
ACAD_GROUP
350
D
3
ACAD_MLINESTYLE
350
17
0
DICTIONARY
5
D
100
AcDbDictionary
0
DICTIONARY
5
1A
330
C
100
AcDbDictionary
0
DICTIONARY
5
17
100
AcDbDictionary
0
ENDSEC
0
EOF
