0
SECTION
2
HEADER
9
$INSUNITS
70
4
9
$ACADVER
1
AC1014
9
$HANDSEED
5
FFFF
0
ENDSEC
0
SECTION
2
TABLES
0
TABLE
2
VPORT
5
8
100
AcDbSymbolTable
0
ENDTAB
0
TABLE
2
LTYPE
5
5
100
AcDbSymbolTable
0
LTYPE
5
14
100
AcDbSymbolTableRecord
100
AcDbLinetypeTableRecord
2
BYBLOCK
70
0
0
LTYPE
5
15
100
AcDbSymbolTableRecord
100
AcDbLinetypeTableRecord
2
BYLAYER
70
0
0
ENDTAB
0
TABLE
2
LAYER
5
2
100
AcDbSymbolTable
70
2
0
LAYER
5
50
100
AcDbSymbolTableRecord
100
AcDbLayerTableRecord
2
0
70
0
6
CONTINUOUS
0
ENDTAB
0
TABLE
2
STYLE
5
3
100
AcDbSymbolTable
70
1
0
STYLE
5
11
100
AcDbSymbolTableRecord
100
AcDbTextStyleTableRecord
2
STANDARD
70
0
0
ENDTAB
0
TABLE
2
VIEW
5
6
100
AcDbSymbolTable
70
0
0
ENDTAB
0
TABLE
2
UCS
5
7
100
AcDbSymbolTable
70
0
0
ENDTAB
0
TABLE
2
APPID
5
9
100
AcDbSymbolTable
70
2
0
APPID
5
12
100
AcDbSymbolTableRecord
100
AcDbRegAppTableRecord
2
ACAD
70
0
0
ENDTAB
0
TABLE
2
DIMSTYLE
5
A
100
AcDbSymbolTable
70
1
0
ENDTAB
0
TABLE
2
BLOCK_RECORD
5
1
100
AcDbSymbolTable
70
1
0
BLOCK_RECORD
5
1F
100
AcDbSymbolTableRecord
100
AcDbBlockTableRecord
2
*MODEL_SPACE
0
BLOCK_RECORD
5
1B
100
AcDbSymbolTableRecord
100
AcDbBlockTableRecord
2
*PAPER_SPACE
0
ENDTAB
0
ENDSEC
0
SECTION
2
BLOCKS
0
BLOCK
5
20
100
AcDbEntity
100
AcDbBlockBegin
2
*MODEL_SPACE
0
ENDBLK
5
21
100
AcDbEntity
100
AcDbBlockEnd
0
BLOCK
5
1C
100
AcDbEntity
100
AcDbBlockBegin
2
*PAPER_SPACE
0
ENDBLK
5
1D
100
AcDbEntity
100
AcDbBlockEnd
0
ENDSEC
0
SECTION
2
ENTITIES
0
LWPOLYLINE
5
100
100
AcDbEntity
8
0
100
AcDbPolyline
90
32
70
1
43
0.0
10
179.00000000000003
20
114.49999999999996
10
179.00000000000003
20
-194.50000000000003
42
-0.41421356237309503
10
174.00000000000003
20
-199.50000000000003
10
142.00000000000003
20
-199.50000000000003
42
0.41421356237309503
10
137.00000000000003
20
-204.50000000000003
10
137.00000000000003
20
-214
42
-0.41421356237309503
10
132.00000000000003
20
-219
10
-132.00000000000003
20
-219
42
-0.41421356237309503
10
-137.00000000000003
20
-214
10
-137.00000000000003
20
-204.50000000000003
42
0.41421356237309503
10
-142.00000000000003
20
-199.50000000000003
10
-174.00000000000003
20
-199.50000000000003
42
-0.41421356237309503
10
-179.00000000000003
20
-194.50000000000003
10
-179.00000000000006
20
-52.500000000000014
42
-0.41421356237309709
10
-176.50000000000006
20
-50.000000000000014
10
-161.5
20
-50.000000000000014
42
0.41421356237309503
10
-159.00000000000003
20
-47.500000000000036
10
-159
20
-32.499999999999993
42
0.41421356237309503
10
-161.5
20
-30.000000000000018
10
-176.50000000000006
20
-30
42
-0.41421356237309709
10
-179.00000000000003
20
-27.500000000000018
10
-179.00000000000003
20
114.49999999999997
42
-0.41421356237309503
10
-174.00000000000003
20
119.49999999999997
10
-142.00000000000003
20
119.49999999999997
42
0.41421356237309503
10
-137.00000000000003
20
124.49999999999997
10
-137.00000000000003
20
133.99999999999997
42
-0.41421356237309503
10
-132.00000000000003
20
138.99999999999997
10
132.00000000000003
20
138.99999999999997
42
-0.41421356237309503
10
137.00000000000003
20
133.99999999999997
10
137.00000000000003
20
124.49999999999997
42
0.41421356237309503
10
142.00000000000003
20
119.49999999999997
10
174.00000000000003
20
119.49999999999997
42
-0.41421356237309503
0
ENDSEC
0
SECTION
2
OBJECTS
0
DICTIONARY
5
C
100
AcDbDictionary
3
ACAD_GROUP
350
D
3
ACAD_MLINESTYLE
350
17
0
DICTIONARY
5
D
100
AcDbDictionary
0
DICTIONARY
5
1A
330
C
100
AcDbDictionary
0
DICTIONARY
5
17
100
AcDbDictionary
0
ENDSEC
0
EOF
