0
SECTION
2
HEADER
9
$INSUNITS
70
4
9
$ACADVER
1
AC1014
9
$HANDSEED
5
FFFF
0
ENDSEC
0
SECTION
2
TABLES
0
TABLE
2
VPORT
5
8
100
AcDbSymbolTable
0
ENDTAB
0
TABLE
2
LTYPE
5
5
100
AcDbSymbolTable
0
LTYPE
5
14
100
AcDbSymbolTableRecord
100
AcDbLinetypeTableRecord
2
BYBLOCK
70
0
0
LTYPE
5
15
100
AcDbSymbolTableRecord
100
AcDbLinetypeTableRecord
2
BYLAYER
70
0
0
ENDTAB
0
TABLE
2
LAYER
5
2
100
AcDbSymbolTable
70
2
0
LAYER
5
50
100
AcDbSymbolTableRecord
100
AcDbLayerTableRecord
2
0
70
0
6
CONTINUOUS
0
ENDTAB
0
TABLE
2
STYLE
5
3
100
AcDbSymbolTable
70
1
0
STYLE
5
11
100
AcDbSymbolTableRecord
100
AcDbTextStyleTableRecord
2
STANDARD
70
0
0
ENDTAB
0
TABLE
2
VIEW
5
6
100
AcDbSymbolTable
70
0
0
ENDTAB
0
TABLE
2
UCS
5
7
100
AcDbSymbolTable
70
0
0
ENDTAB
0
TABLE
2
APPID
5
9
100
AcDbSymbolTable
70
2
0
APPID
5
12
100
AcDbSymbolTableRecord
100
AcDbRegAppTableRecord
2
ACAD
70
0
0
ENDTAB
0
TABLE
2
DIMSTYLE
5
A
100
AcDbSymbolTable
70
1
0
ENDTAB
0
TABLE
2
BLOCK_RECORD
5
1
100
AcDbSymbolTable
70
1
0
BLOCK_RECORD
5
1F
100
AcDbSymbolTableRecord
100
AcDbBlockTableRecord
2
*MODEL_SPACE
0
BLOCK_RECORD
5
1B
100
AcDbSymbolTableRecord
100
AcDbBlockTableRecord
2
*PAPER_SPACE
0
ENDTAB
0
ENDSEC
0
SECTION
2
BLOCKS
0
BLOCK
5
20
100
AcDbEntity
100
AcDbBlockBegin
2
*MODEL_SPACE
0
ENDBLK
5
21
100
AcDbEntity
100
AcDbBlockEnd
0
BLOCK
5
1C
100
AcDbEntity
100
AcDbBlockBegin
2
*PAPER_SPACE
0
ENDBLK
5
1D
100
AcDbEntity
100
AcDbBlockEnd
0
ENDSEC
0
SECTION
2
ENTITIES
0
LINE
5
100
100
AcDbEntity
8
0
100
AcDbLine
10
876.46257318404889
20
5.7243744187774226
30
0
11
877.69998038187623
21
5.7243744187774226
31
0
0
LINE
5
101
100
AcDbEntity
8
0
100
AcDbLine
10
877.69998038187623
20
5.7243744187774226
30
0
11
877.69998038187623
21
-0.39999999105930328
31
0
0
LINE
5
102
100
AcDbEntity
8
0
100
AcDbLine
10
876.46257318404889
20
-0.39999999105930328
30
0
11
876.46257318404889
21
5.7243744187774226
31
0
0
LINE
5
103
100
AcDbEntity
8
0
100
AcDbLine
10
877.69998038187623
20
-0.39999999105930328
30
0
11
876.46257318404889
21
-1.3927138907104841
31
0
0
LINE
5
104
100
AcDbEntity
8
0
100
AcDbLine
10
876.46257318404889
20
-1.3927138907104841
30
0
11
876.46257318404889
21
-0.099999997764825821
31
0
0
LWPOLYLINE
5
105
100
AcDbEntity
8
0
100
AcDbPolyline
90
7
70
1
43
0.0
10
879.91037459618747
20
7.1751354692784357
10
878.67442774760275
20
7.9116816724981884
10
874.01687978700897
20
7.9242452159998074
10
874.39998045563698
20
7.4486915117272989
10
874.39998045563698
20
-6.0999998636543751
10
874.27645659540667
20
-6.4719708675016587
10
879.91037459618747
20
-1.9333504473394669
0
LWPOLYLINE
5
106
100
AcDbEntity
8
0
100
AcDbPolyline
90
7
70
1
43
0.0
10
880.14584579438883
20
7.0199701016969671
10
880.89998031258585
20
7.8999998234212399
10
884.99998022094371
20
7.8999998234212399
10
885.76074980091289
20
7.0751659352561171
10
885.76074980091289
20
-1.3840040229925097
10
882.74998027123513
20
-3.5999999195337296
10
880.14584579438883
20
-1.550512932094753
0
LWPOLYLINE
5
107
100
AcDbEntity
8
0
100
AcDbPolyline
90
4
70
1
43
0.0
10
883.49998025447132
20
5.6999998725950718
10
882.29998028129341
20
5.6999998725950718
10
882.29998028129341
20
-0.099999997764825821
10
883.49998025447132
20
-1.099999975413084
0
LWPOLYLINE
5
108
100
AcDbEntity
8
0
100
AcDbPolyline
90
7
70
1
43
0.0
10
890.89998022094369
20
7.8999998234212399
10
891.66074980091275
20
7.0751659352561171
10
891.66074980091275
20
-1.3840040229925097
10
888.64998027123511
20
-3.5999999195337296
10
886.04584579438881
20
-1.550512932094753
10
886.04584579438881
20
7.0199701016969671
10
886.79998031258583
20
7.8999998234212399
0
LWPOLYLINE
5
109
100
AcDbEntity
8
0
100
AcDbPolyline
90
4
70
1
43
0.0
10
889.3999802544713
20
5.6999998725950718
10
888.19998028129339
20
5.6999998725950718
10
888.19998028129339
20
-0.099999997764825821
10
889.3999802544713
20
-1.099999975413084
0
LWPOLYLINE
5
110
100
AcDbEntity
8
0
100
AcDbPolyline
90
12
70
1
43
0.0
10
894.35768458721509
20
7.8999998234212399
10
892.09998006001115
20
7.8999998234212399
10
892.09998006001115
20
-1.3999999687075615
10
894.35700759714882
20
-2.9999999329447746
10
894.35700759714882
20
2.1999999508261681
10
895.99997997283936
20
-1.3999999687075615
10
897.49997993931174
20
2.1999999508261681
10
897.49997993931174
20
-2.9999999329447746
10
899.72949754880551
20
-1.3676058857577833
10
899.72949754880551
20
7.8999998234212399
10
897.49997993931174
20
7.8999998234212399
10
895.7999799773097
20
4.5999998971819878
0
LWPOLYLINE
5
111
100
AcDbEntity
8
0
100
AcDbPolyline
90
15
70
1
43
0.0
10
905.89997975155711
20
7.0999998413026333
10
905.09997976943851
20
7.8999998234212399
10
901.07471388356828
20
7.8887193339120687
10
900.29997987672675
20
6.9999998435378075
10
900.29997987672675
20
-1.4999999664723869
10
902.89997981861222
20
-3.5999999195337291
10
905.89997975155711
20
-1.3999999687075615
10
905.89997975155711
20
0.9590952025706373
10
903.69997980073094
20
0.9590952025706373
10
903.69997980073094
20
-1.099999975413084
10
902.39997982978821
20
-0.050367609232400135
10
902.39997982978821
20
5.6999998725950718
10
903.69997980073094
20
5.6999998725950718
10
903.69997980073094
20
4.4999998994171619
10
905.89997975155711
20
4.4999998994171619
0
LWPOLYLINE
5
112
100
AcDbEntity
8
0
100
AcDbPolyline
90
9
70
1
43
0.0
10
908.39997969567776
20
7.8999998234212399
10
906.29997974261642
20
7.8999998234212399
10
906.29997974261642
20
-1.5499999653548002
10
908.89997968450189
20
-3.5999999195337296
10
911.93004331435077
20
-1.3999999687075615
10
911.93004331435077
20
7.8999998234212399
10
909.67166745197255
20
7.8999998234212399
10
909.67166745197255
20
-1.1032049253334613
10
908.39997969567776
20
0
0
LWPOLYLINE
5
113
100
AcDbEntity
8
0
100
AcDbPolyline
90
10
70
1
43
0.0
10
917.0999795012176
20
7.8999998234212399
10
913.09997959062457
20
7.8999998234212399
10
912.29997960850596
20
6.9999998435378075
10
912.29997960850596
20
-1.5999999642372131
10
914.89997955039144
20
-3.6999999172985554
10
917.89997948333621
20
-1.3999999687075615
10
917.89997948333621
20
2.1999999508261681
10
916.49997951462865
20
2.9999999329447746
10
917.89997948333621
20
3.7999999150633812
10
917.89997948333621
20
7.0999998413026333
0
LWPOLYLINE
5
114
100
AcDbEntity
8
0
100
AcDbPolyline
90
4
70
1
43
0.0
10
915.69997953251004
20
4.7999998927116394
10
915.69997953251004
20
5.6999998725950718
10
914.39997956156731
20
5.6999998725950718
10
914.39997956156731
20
3.9999999105930328
0
LWPOLYLINE
5
115
100
AcDbEntity
8
0
100
AcDbPolyline
90
4
70
1
43
0.0
10
914.45503022096273
20
-0.045947911966745802
10
914.45503022096273
20
1.8763544308202382
10
915.69997953251004
20
1.099999975413084
10
915.69997953251004
20
-1.099999975413084
0
LWPOLYLINE
5
116
100
AcDbEntity
8
0
100
AcDbPolyline
90
20
70
1
43
0.0
10
918.71338547554637
20
7.4912093842219942
10
918.39997947216034
20
7.8999998234212399
10
922.99997936934233
20
7.8999998234212399
10
924.19997934252024
20
7.1999998390674591
10
924.19997934252024
20
5.2999998815357685
10
921.99997939169407
20
5.2999998815357685
10
921.99997939169407
20
5.7295828606027568
10
920.74997941963375
20
5.7295828606027568
10
920.74997941963375
20
3.6516281545558735
10
922.8999793715775
20
3.6516281545558735
10
922.8999793715775
20
1.4999999664723873
10
920.74997941963375
20
1.4999999664723873
10
920.74997941963375
20
-1.3499999698251486
10
921.99997939169407
20
-0.39999999105930328
10
921.99997939169407
20
0.39999999105930328
10
924.21004389761947
20
0.39999999105930328
10
924.21004389761947
20
-1.6800000797957182
10
924.37790641917763
20
-1.8452985255539145
10
918.44945881765454
20
-6.5624087341209663
10
918.71338547554637
20
-5.5000000819563875
0
ENDSEC
0
SECTION
2
OBJECTS
0
DICTIONARY
5
C
100
AcDbDictionary
3
ACAD_GROUP
350
D
3
ACAD_MLINESTYLE
350
17
0
DICTIONARY
5
D
100
AcDbDictionary
0
DICTIONARY
5
1A
330
C
100
AcDbDictionary
0
DICTIONARY
5
17
100
AcDbDictionary
0
ENDSEC
0
EOF
